<svg xmlns="http://www.w3.org/2000/svg" data-name="Layer 1" viewBox="0 0 48 48"><rect width="24" height="6" x="12.03" y="25" fill="#b6fb96" rx="1"/><path fill="#b6fb96" d="M14.38 33h19.3L32.02 47.12a1 1 0 0 1-.99.88h-14a1 1 0 0 1-.99-.88zM25.03 11.89v.68l-1.01 1.01-.99-.98L16.74 6.29 15.32 7.71 23.59 16H20.92A11.9 11.9 0 0 1 9.03 4.11V1a1 1 0 0 1 1-1h3.11A11.881 11.881 0 0 1 25.03 11.89z"/><path fill="#b6fb96" d="M39.03,1V4.11A11.9,11.9,0,0,1,27.14,16H24.43l8.31-8.29L31.33,6.29l-6.3,6.28-1.01,1.01-.99-.98v-.71A11.881,11.881,0,0,1,34.92,0h3.11A1,1,0,0,1,39.03,1Z"/><rect width="2" height="9" x="23.031" y="16" fill="#b6fb96"/></svg>
